<svg width="40" height="48" viewBox="0 0 40 48" fill="none" xmlns="http://www.w3.org/2000/svg">
  <path d="M33.4431 25.1541C33.4219 21.254 35.186 18.3103 38.7566 16.1424C36.7588 13.2837 33.7407 11.7109 29.7556 11.4028C25.983 11.1052 21.8597 13.6025 20.3507 13.6025C18.7566 13.6025 15.101 11.509 12.2317 11.509C6.30181 11.6047 0 16.238 0 25.6642C0 28.4485 0.510096 31.3248 1.53029 34.2933C2.89054 38.1934 7.80021 47.7577 12.9224 47.5983C15.6004 47.5345 17.492 45.6961 20.9777 45.6961C24.3571 45.6961 26.1105 47.5983 29.0967 47.5983C34.2614 47.5239 38.7035 38.831 40 34.9203C33.0712 31.6578 33.4431 25.356 33.4431 25.1541ZM27.4283 7.70457C30.3294 4.26142 30.0638 1.12646 29.9787 0C27.4176 0.148778 24.4527 1.74283 22.763 3.70882C20.9033 5.81296 19.8087 8.41658 20.0425 11.3496C22.8162 11.5622 25.3454 10.1382 27.4283 7.70457Z" fill="#333333"/>
  </svg>
  