<svg width="50" height="50" viewBox="0 0 50 50" fill="none" xmlns="http://www.w3.org/2000/svg">
  <path d="M43.8926 8.02786H6.10739C2.73993 8.02786 0 10.7678 0 14.1353V35.8647C0 39.2322 2.73993 41.9721 6.10739 41.9721H43.8926C47.2601 41.9721 50 39.2322 50 35.8647V14.1359C50.0007 10.7678 47.2607 8.02786 43.8926 8.02786ZM40.9083 12.0122L25 22.2614L9.09169 12.0122H40.9083ZM43.8926 37.9884H6.10739C4.93665 37.9884 3.98438 37.0355 3.98438 35.8654V14.2488L23.7708 26.9723C23.7974 26.9889 23.8259 27.0002 23.8532 27.0154C23.8817 27.0314 23.9109 27.0466 23.9402 27.0613C24.0936 27.1403 24.2516 27.204 24.413 27.2459C24.4296 27.2505 24.4462 27.2525 24.4628 27.2565C24.6401 27.2983 24.8194 27.3242 24.9987 27.3242H25C25.0013 27.3242 25.0027 27.3242 25.0027 27.3242C25.182 27.3242 25.3612 27.299 25.5386 27.2565C25.5552 27.2525 25.5718 27.2505 25.5884 27.2459C25.7497 27.204 25.9071 27.1403 26.0612 27.0613C26.0904 27.0466 26.1196 27.0314 26.1482 27.0154C26.1754 27.0002 26.2039 26.9889 26.2305 26.9723L46.0169 14.2488V35.8647C46.0163 37.0355 45.0634 37.9884 43.8926 37.9884Z" fill="#333333"/>
  </svg>
  